<?xml version="1.0" encoding="utf-8"?>
<!-- Generator: Adobe Illustrator 16.0.3, SVG Export Plug-In . SVG Version: 6.00 Build 0)  -->
<!DOCTYPE svg PUBLIC "-//W3C//DTD SVG 1.1//EN" "http://www.w3.org/Graphics/SVG/1.1/DTD/svg11.dtd">
<svg version="1.1" id="Шар_1" xmlns="http://www.w3.org/2000/svg" xmlns:xlink="http://www.w3.org/1999/xlink" x="0px" y="0px"
	 width="110.02px" height="65.005px" viewBox="0 0 110.02 65.005" enable-background="new 0 0 110.02 65.005" xml:space="preserve">
<g>
	<path fill-rule="evenodd" clip-rule="evenodd" fill="#404040" d="M66.746,15.23c-6.377-6.3-16.58-6.176-22.79,0.275
		c-6.211,6.453-6.076,16.791,0.301,23.091c2.211,2.185,4.885,3.578,7.689,4.222v22.188h7.116V42.833
		c2.938-0.668,5.727-2.166,7.984-4.513C73.257,31.869,73.122,21.531,66.746,15.23z M61.997,37.865
		c-5.956,3.586-13.743,1.582-17.285-4.456s-1.581-13.841,4.379-17.429c5.961-3.588,13.664-1.603,17.206,4.436
		S67.953,34.28,61.997,37.865z"/>
	<path fill-rule="evenodd" clip-rule="evenodd" fill="#404040" d="M56.176,21.655c-0.086-0.005-0.168-0.026-0.256-0.026
		c-0.025,0-0.049,0.007-0.074,0.007c-0.047,0-0.088-0.007-0.135-0.007c-7.593,0-9.629,6.698-9.629,6.698
		c3.448,2.112,6.64,2.848,9.383,2.884c0.152,0.015,0.299,0.046,0.455,0.046c0.229,0,0.449-0.037,0.67-0.067
		c5.067-0.285,8.33-2.863,8.33-2.863S63.356,21.931,56.176,21.655z M46.92,28.327c0,0,1.939-3.568,5.468-5.133
		c-0.789,0.857-1.282,1.992-1.282,3.249c0,1.489,0.69,2.803,1.752,3.686C51.042,29.842,49.06,29.295,46.92,28.327z M55.92,27.49
		c-0.578,0-1.047-0.469-1.047-1.046c0-0.578,0.469-1.047,1.047-1.047s1.046,0.469,1.046,1.047
		C56.966,27.021,56.498,27.49,55.92,27.49z M58.986,30.125c1.059-0.883,1.747-2.196,1.747-3.682c0-1.056-0.35-2.023-0.926-2.817
		c2.861,1.707,4.275,4.701,4.275,4.701S62.211,29.572,58.986,30.125z"/>
</g>
<g>
	<g>
		<path fill="#ED6C13" d="M21.602,65.004V47.002H0v-5.199L21.102,0h7.501v40.703h7v6.3h-7v18.002H21.602z M21.602,40.703V22.401
			c0-4.5,0.3-8.5,0.601-12.801h-0.4c-2.2,5.2-3.601,8.2-5.5,12.201L7.301,40.502v0.2H21.602z"/>
	</g>
</g>
<g>
	<g>
		<path fill="#ED6C13" d="M96.019,65.005V47.004H74.417v-5.2L95.519,0.001h7.501v40.702h7v6.301h-7v18.001H96.019z M96.019,40.704
			V22.403c0-4.5,0.3-8.5,0.601-12.801h-0.4c-2.2,5.2-3.601,8.2-5.5,12.201l-9.001,18.702v0.199H96.019z"/>
	</g>
</g>
</svg>
