<?xml version="1.0" encoding="utf-8"?>
<!-- Generator: Adobe Illustrator 16.0.3, SVG Export Plug-In . SVG Version: 6.00 Build 0)  -->
<!DOCTYPE svg PUBLIC "-//W3C//DTD SVG 1.1//EN" "http://www.w3.org/Graphics/SVG/1.1/DTD/svg11.dtd">
<svg version="1.1" id="Шар_1" xmlns="http://www.w3.org/2000/svg" xmlns:xlink="http://www.w3.org/1999/xlink" x="0px" y="0px"
	 width="293.333px" height="80px" viewBox="0 0 293.333 80" enable-background="new 0 0 293.333 80" xml:space="preserve">
<path fill-rule="evenodd" clip-rule="evenodd" fill="#404040" d="M226.081,46.008c-0.356-1.305-1.944-0.617-2.637-0.246
	c-3.27-2.127-6.838-7.904-6.838-7.904c0.006,0.035,0.011,0.063,0.018,0.098c-0.011-0.059-0.018-0.098-0.018-0.098
	c-0.523-2.902-1.872-5.174-3.715-6.959c-0.142-0.706-0.78-1.879-2.533-3.854c-4.431-4.995-1.93-6.172-1.93-6.172
	s-4.243,0.108-2.799,5.808c-0.291-0.101-0.582-0.197-0.876-0.289c-2.2-3.536-5.938-3.265-5.938-3.265
	c0.831,0.386,1.469,1.262,1.953,2.277c-5.211-0.999-10.229-0.945-12.481-0.9c-5.293,0.107-11.646-5.743-19.185-4.194
	c-7.539,1.55-16.529,0.474-16.529,0.474c-18.164-2.813-21.593,0.713-22.187,1.071c-10.869,9.383-22.948,6.255-22.948,6.255
	c0.564,2.102,9.211,5.533,20.58,1.647c0.874-0.299,1.687-0.492,2.46-0.611c0.135,2.565,0.045,9.885-4.905,13.622
	c0,0-1.691,1.617,1.662,3.648c3.353,2.033,3.213,2.492,4.318,4.645s6.034,1.861,5.045-0.533c-0.99-2.396-6.804-4.977-4.453-5.906
	c1.827-0.721,6.68,0.289,8.736-1.979c-0.129,1.053-0.391,2.105-0.869,3.131c0,0-0.735,2.219,3.178,2.445
	c3.914,0.227,4.006,0.697,5.99,2.082c1.985,1.383,6.203-1.18,4.207-2.834c-1.996-1.652-8.341-1.211-6.699-3.133
	c1.088-1.273,4.719-2.457,6.235-4.617c2.037,0.781,4.334,1.463,6.968,1.969c4.455,0.859,8.3,1.504,11.677,1.928
	c0.526,5.277,2.139,8.088,2.139,8.088c0.447,2.285,7.717,4.893,9.229,2.848c1.513-2.043-3.939-3.393-5.579-4.51
	c-0.925-0.629,0.1-3.482,1.168-5.852c1.87,0.053,3.555-0.016,5.122-0.184c0.667,2.803,1.51,4.271,1.51,4.271
	c0.447,2.285,7.717,4.893,9.229,2.848c1.513-2.043-3.939-3.393-5.579-4.51c-1.094-0.746,0.537-2.963,1.746-4.361
	c1.123-0.49,2.199-1.072,3.258-1.756c7.245-4.67,17.116,4.012,22.604,7.586s6.19,0.311,7.567-0.801
	c0.038-0.031,0.065-0.059,0.1-0.088C225.142,47.868,226.42,47.247,226.081,46.008z M216.911,39.551
	c-0.054-0.299-0.104-0.576-0.146-0.816C216.816,39.022,216.865,39.292,216.911,39.551c0.075,0.412,0.156,0.863,0.238,1.318
	C217.078,40.477,216.998,40.034,216.911,39.551z M217.224,41.28c0.155,0.859,0.302,1.672,0.39,2.164
	C217.54,43.038,217.415,42.344,217.224,41.28z M217.675,43.782C217.704,43.946,217.708,43.967,217.675,43.782L217.675,43.782z"/>
<path fill-rule="evenodd" clip-rule="evenodd" fill="#B2B2B2" d="M198.551,24.698c-0.105-0.531-1.84,0-1.84,0
	c-0.494,2.335-0.652,4.128-0.734,6.117C183.606,35.042,32.799,85.318,0,34.944l0.368,1.47c0,0,19.449,51.674,195.574-4.258
	c-0.042,4.98,0.646,7.397,0.646,7.397c1.438,0.327,2.408-0.201,2.408-0.201C196.499,35.262,198.751,25.708,198.551,24.698z"/>
<g>
	<path fill="#B2B2B2" d="M247.131,54.979V44.958h1.23v3.596c0.574-0.666,1.299-0.998,2.174-0.998c0.538,0,1.005,0.105,1.401,0.318
		c0.396,0.211,0.68,0.504,0.852,0.878c0.17,0.374,0.256,0.916,0.256,1.627v4.601h-1.23v-4.601c0-0.615-0.133-1.063-0.4-1.343
		c-0.266-0.281-0.644-0.421-1.131-0.421c-0.364,0-0.707,0.095-1.029,0.284c-0.32,0.188-0.55,0.445-0.687,0.769
		s-0.205,0.771-0.205,1.34v3.972H247.131z"/>
	<path fill="#B2B2B2" d="M257.604,53.878l0.178,1.087c-0.347,0.072-0.656,0.109-0.93,0.109c-0.446,0-0.793-0.07-1.039-0.212
		s-0.419-0.327-0.52-0.558c-0.101-0.229-0.15-0.714-0.15-1.452v-4.177h-0.902v-0.957h0.902v-1.798l1.224-0.738v2.536h1.237v0.957
		h-1.237v4.245c0,0.351,0.021,0.577,0.064,0.677c0.044,0.1,0.114,0.18,0.213,0.239c0.098,0.06,0.237,0.089,0.42,0.089
		C257.2,53.926,257.38,53.911,257.604,53.878z"/>
	<path fill="#B2B2B2" d="M261.493,53.878l0.178,1.087c-0.347,0.072-0.656,0.109-0.93,0.109c-0.446,0-0.793-0.07-1.039-0.212
		s-0.419-0.327-0.52-0.558c-0.101-0.229-0.15-0.714-0.15-1.452v-4.177h-0.902v-0.957h0.902v-1.798l1.224-0.738v2.536h1.237v0.957
		h-1.237v4.245c0,0.351,0.021,0.577,0.065,0.677c0.043,0.1,0.113,0.18,0.211,0.239c0.099,0.06,0.238,0.089,0.421,0.089
		C261.09,53.926,261.27,53.911,261.493,53.878z"/>
	<path fill="#B2B2B2" d="M262.696,57.761V47.719h1.121v0.943c0.265-0.369,0.563-0.646,0.896-0.83
		c0.333-0.186,0.736-0.277,1.21-0.277c0.62,0,1.167,0.16,1.641,0.479s0.832,0.77,1.073,1.35c0.241,0.582,0.362,1.219,0.362,1.911
		c0,0.743-0.133,1.411-0.4,2.007c-0.266,0.594-0.653,1.05-1.162,1.367c-0.508,0.316-1.042,0.475-1.603,0.475
		c-0.41,0-0.778-0.086-1.104-0.26c-0.325-0.174-0.593-0.393-0.803-0.656v3.534H262.696z M263.811,51.39
		c0,0.935,0.189,1.624,0.567,2.071s0.836,0.67,1.374,0.67c0.547,0,1.015-0.231,1.405-0.693c0.389-0.463,0.584-1.18,0.584-2.15
		c0-0.926-0.19-1.617-0.57-2.078c-0.381-0.461-0.836-0.69-1.364-0.69c-0.524,0-0.987,0.245-1.392,0.735
		C264.013,49.744,263.811,50.456,263.811,51.39z"/>
	<path fill="#B2B2B2" d="M270.824,49.121v-1.401h1.401v1.401H270.824z M270.824,54.979v-1.401h1.401v1.401H270.824z"/>
	<path fill="#B2B2B2" d="M273.449,55.15l2.905-10.363h0.984L274.44,55.15H273.449z"/>
	<path fill="#B2B2B2" d="M277.339,55.15l2.905-10.363h0.984L278.33,55.15H277.339z"/>
	<path fill="#B2B2B2" d="M282.5,54.979v-1.401h1.401v1.401H282.5z"/>
	<path fill="#B2B2B2" d="M286.39,54.979v-1.401h1.401v1.401H286.39z"/>
	<path fill="#B2B2B2" d="M290.279,54.979v-1.401h1.401v1.401H290.279z"/>
</g>
</svg>
