<?xml version="1.0" encoding="utf-8"?>
<!-- Generator: Adobe Illustrator 16.0.3, SVG Export Plug-In . SVG Version: 6.00 Build 0)  -->
<!DOCTYPE svg PUBLIC "-//W3C//DTD SVG 1.1//EN" "http://www.w3.org/Graphics/SVG/1.1/DTD/svg11.dtd">
<svg version="1.1" id="Шар_1" xmlns="http://www.w3.org/2000/svg" xmlns:xlink="http://www.w3.org/1999/xlink" x="0px" y="0px"
	 width="102.141px" height="79.535px" viewBox="0 0 102.141 79.535" enable-background="new 0 0 102.141 79.535"
	 xml:space="preserve">
<g>
	<path fill="#5FB130" d="M86.885,47.174c1.099,0.365,4.25,1.227,7.71,0.432c4.298-0.985,7.545-6.387,7.545-6.387
		s-5.504-0.967-9.286,0c-2.781,0.711-4.919,3.51-5.858,4.945c0.211-2.21,0.178-4.464-0.039-6.71
		c10.352-0.485,12.281-11.588,12.281-11.588s-3.898,1.2-8.125,3.483c-2.771,1.497-3.898,4.517-4.351,6.424
		c-0.384-2.817-1.021-5.591-1.795-8.21c10.712-1.793,9.048-13.889,9.048-13.889c-8.022,3.666-9.126,10.78-9.27,13.144
		c-0.685-2.229-1.455-4.33-2.229-6.236c8.557-4.244,6.854-16.197,6.854-16.197s-2.42,1.656-5.804,5.805
		c-2.55,3.127-1.916,7.473-1.449,9.426c-1.387-3.298-2.729-5.912-3.55-7.418c1.401,1.717,1.517,2.637,1.517,2.637
		S85.198,6.189,73.122,0c0,0-0.938,8.238,2.901,11.611c0.96,0.843,1.692,1.591,2.255,2.238c0.762,1.638,2.262,5.016,3.741,9.209
		c-4.946-8.218-14.7-5.062-14.7-5.062s1.663,2.33,5.803,5.225c3.579,2.503,8.337,1.98,9.563,1.793
		c1.023,3.111,1.979,6.548,2.596,9.996c-5.486-8.404-12.737-7.144-12.737-7.144c1.602,8.468,10.783,8.318,12.905,8.167
		c0.724,4.559,0.81,9.066-0.363,12.771c-1.754-9.877-10.801-11.651-10.801-11.651c0.462,10.1,7.73,12.627,10.204,13.2
		c-0.11,0.246-0.215,0.496-0.339,0.733c-1.684,3.202-3.427,5.716-5.308,7.728c2.229-9.254-7.489-13.828-7.489-13.828
		c-1.487,10.004,4.312,13.91,6.362,14.963c-2.684,2.521-5.66,4.143-9.131,5.34c5.441-7.374-1.265-15.361-1.265-15.361
		c-5.297,8.075-2.229,13.895-0.703,15.983c-2.729,0.79-5.755,1.396-9.163,2.013c-2.436,0.441-4.55,1.074-6.383,1.809
		c-1.834-0.733-3.948-1.366-6.384-1.809c-3.408-0.617-6.433-1.223-9.163-2.013c1.523-2.091,4.593-7.908-0.703-15.983
		c0,0-6.707,7.987-1.264,15.362c-3.472-1.198-6.448-2.817-9.133-5.341c2.053-1.053,7.852-4.959,6.364-14.963
		c0,0-9.718,4.574-7.49,13.828c-1.88-2.012-3.624-4.523-5.307-7.728c-0.125-0.235-0.229-0.487-0.339-0.733
		c2.474-0.569,9.743-3.099,10.205-13.2c0,0-9.047,1.773-10.8,11.651c-1.175-3.705-1.088-8.211-0.364-12.771
		c2.122,0.15,11.305,0.301,12.905-8.167c0,0-7.251-1.26-12.737,7.144c0.617-3.448,1.571-6.885,2.595-9.996
		c1.225,0.188,5.982,0.711,9.563-1.793c4.139-2.895,5.803-5.225,5.803-5.225s-9.755-3.157-14.701,5.063
		c1.479-4.194,2.98-7.573,3.742-9.211c0.561-0.647,1.294-1.395,2.254-2.238C29.956,8.238,29.017,0,29.017,0
		c-12.076,6.189-6.964,16.836-6.964,16.836s0.115-0.92,1.517-2.637c-0.82,1.506-2.164,4.122-3.551,7.421
		c0.467-1.951,1.104-6.3-1.448-9.429c-3.384-4.149-5.803-5.805-5.803-5.805s-1.703,11.953,6.854,16.197
		c-0.773,1.907-1.544,4.007-2.229,6.237c-0.142-2.362-1.243-9.479-9.268-13.146c0,0-1.664,12.096,9.046,13.889
		c-0.771,2.62-1.412,5.394-1.793,8.211c-0.452-1.907-1.581-4.928-4.352-6.425c-4.227-2.284-8.125-3.483-8.125-3.483
		s1.931,11.103,12.281,11.588c-0.218,2.246-0.25,4.5-0.039,6.71c-0.939-1.436-3.078-4.234-5.859-4.945c-3.783-0.967-9.286,0-9.286,0
		s3.247,5.4,7.544,6.387c3.46,0.795,6.611-0.065,7.71-0.432c0.201,1.531,0.521,3.037,0.995,4.494
		c0.467,1.434,1.075,2.752,1.783,3.977c-0.963-1.092-3.194-3.166-6.426-3.396C7.2,51.938,2.902,53.41,2.902,53.41
		s7.376,8.029,15.573,2.958c2.039,3.215,4.821,5.704,7.827,7.62c-2.785-0.844-8.718-1.493-14.556,5.25
		c0,0,10.638,4.771,16.043-4.356c8.021,4.544,16.896,5.364,16.896,5.364s1.353,0.214,3.324,0.932
		c-5.431,2.995-7.387,6.615-7.387,6.615l2.322,1.742c2.418-3.42,5.455-5.615,8.125-7.01c2.669,1.395,5.707,3.59,8.125,7.01
		l2.321-1.742c0,0-1.956-3.62-7.388-6.615c1.973-0.718,3.324-0.932,3.324-0.932s8.875-0.82,16.896-5.364
		c5.404,9.128,16.043,4.356,16.043,4.356c-5.837-6.743-11.771-6.094-14.556-5.25c3.005-1.916,5.788-4.405,7.827-7.62
		c8.198,5.071,15.573-2.958,15.573-2.958s-4.298-1.473-8.705-1.161c-3.231,0.229-5.463,2.304-6.426,3.396
		c0.708-1.225,1.315-2.543,1.783-3.977C86.364,50.211,86.684,48.705,86.885,47.174z"/>
	<path fill="#5FB130" d="M64.331,68.979c3.501,10.297,15.05,7.535,15.05,7.535C73.242,65.939,64.331,68.979,64.331,68.979z"/>
	<path fill="#5FB130" d="M22.758,76.514c0,0,11.55,2.762,15.051-7.535C37.808,68.979,28.896,65.939,22.758,76.514z"/>
</g>
<polygon fill="#F56B00" points="63.632,30.423 61.143,27.92 49.058,40.07 40.999,31.965 38.508,34.469 46.569,42.572 46.556,42.586 
	49.045,45.088 49.058,45.075 49.071,45.088 51.56,42.586 51.547,42.572 "/>
</svg>
