<?xml version="1.0" encoding="utf-8"?>
<!-- Generator: Adobe Illustrator 16.0.3, SVG Export Plug-In . SVG Version: 6.00 Build 0)  -->
<!DOCTYPE svg PUBLIC "-//W3C//DTD SVG 1.1//EN" "http://www.w3.org/Graphics/SVG/1.1/DTD/svg11.dtd">
<svg version="1.1" id="Шар_1" xmlns="http://www.w3.org/2000/svg" xmlns:xlink="http://www.w3.org/1999/xlink" x="0px" y="0px"
	 width="86.154px" height="49.006px" viewBox="0 0 86.154 49.006" enable-background="new 0 0 86.154 49.006" xml:space="preserve">
<g>
	<g>
		<path fill="#ED6C13" d="M22.283,1.477c-7.767,2.602-10.453,12.436-5.495,27.239c5.048,15.068,12.673,21.301,20.107,18.811
			c7.236-2.424,10.788-10.775,5.162-27.57C37.277,5.684,29.917-1.08,22.283,1.477z M35.782,42.879
			c-5.709,1.912-10.57-6.648-13.661-15.876c-3.046-9.095-4.366-18.988,1.275-20.878c5.775-1.935,10.616,7.444,13.418,15.809
			C39.749,30.696,41.49,40.967,35.782,42.879z"/>
		<path fill="#ED6C13" d="M63.966,14.071c-1.891,0-3.291,0.421-4.48,1.19c-1.12,0.771-2.171,1.82-2.871,3.011h-0.14V0h-5.391v48.445
			h5.391V26.533c0-0.84,0.07-1.82,0.21-2.521c0.84-3.57,2.73-5.391,5.251-5.391c3.64,0,4.55,3.851,4.55,7.981v21.842h5.391V25.973
			C71.876,17.432,68.236,14.071,63.966,14.071z"/>
		<polygon fill="#ED6C13" points="85.034,35.354 85.734,1.261 79.854,1.261 80.554,35.354 		"/>
		<path fill="#ED6C13" d="M82.794,41.375c-1.96,0-3.431,1.54-3.431,3.85c0,2.24,1.4,3.781,3.36,3.781
			c2.24,0,3.431-1.541,3.431-3.781C86.154,42.915,84.895,41.375,82.794,41.375z"/>
	</g>
	<path fill-rule="evenodd" clip-rule="evenodd" fill="#404040" d="M23.481,18.569c-0.086-0.321-0.199-0.626-0.325-0.923l-2.89,5.092
		h-4.605l-1.688-4.12l0.435-0.594l-0.125-3.977c-3.07,1.306-4.795,4.721-3.907,8.059c0.282,1.058,0.8,1.985,1.475,2.754
		L0.304,45.024c-0.29,0.505-0.388,1.121-0.227,1.729c0.324,1.217,1.564,1.938,2.771,1.613c0.604-0.163,1.084-0.558,1.374-1.064
		l11.583-20.227c0.932,0.158,1.909,0.129,2.882-0.133C22.306,25.967,24.452,22.218,23.481,18.569z M2.613,47.486
		c-0.724,0.195-1.477-0.271-1.681-1.041c-0.205-0.771,0.215-1.553,0.939-1.748c0.723-0.195,1.477,0.27,1.682,1.041
		C3.758,46.508,3.337,47.291,2.613,47.486z"/>
</g>
</svg>
